<svg xmlns="http://www.w3.org/2000/svg" viewBox="0 0 720 360" role="img" aria-label="Citoyen">
  <defs>
    <linearGradient id="sky" x1="0" x2="1" y1="0" y2="1">
      <stop offset="0" stop-color="#201812"/>
      <stop offset=".42" stop-color="#8f663d"/>
      <stop offset="1" stop-color="#f0cf8c"/>
    </linearGradient>
    <radialGradient id="sun" cx="50%" cy="34%" r="55%">
      <stop offset="0" stop-color="#ffe6ad" stop-opacity=".8"/>
      <stop offset=".55" stop-color="#ad7b42" stop-opacity=".28"/>
      <stop offset="1" stop-color="#0b0806" stop-opacity=".62"/>
    </radialGradient>
    <linearGradient id="coat" x1="0" x2="0" y1="0" y2="1">
      <stop offset="0" stop-color="#f2d49a"/>
      <stop offset="1" stop-color="#9b6b38"/>
    </linearGradient>
  </defs>
  <rect width="720" height="360" fill="#120d09"/>
  <rect width="720" height="360" fill="url(#sky)"/>
  <rect width="720" height="360" fill="url(#sun)"/>
  <path d="M0 276c112-66 222-76 330-32 132 54 244 21 390-64v180H0z" fill="#17110c" opacity=".5"/>
  <path d="M0 303c151-35 279-41 393-20 118 22 224 17 327-29v106H0z" fill="#0a0806" opacity=".42"/>
  <g transform="translate(248 47)">
    <path d="M80 74h105l25 40H55z" fill="#2b2118" stroke="#f2d49a" stroke-width="9" stroke-linejoin="round"/>
    <path d="M36 111h200l-36 33H72z" fill="#2b2118" stroke="#f2d49a" stroke-width="9" stroke-linejoin="round"/>
    <circle cx="136" cy="162" r="42" fill="#f0d09a" stroke="#332316" stroke-width="8"/>
    <path d="M85 198c16-35 34-52 51-52 18 0 37 17 53 52l40 88H45z" fill="url(#coat)" stroke="#332316" stroke-width="8" stroke-linejoin="round"/>
    <path d="M79 244h115" stroke="#3b2a1b" stroke-width="14" stroke-linecap="round"/>
    <path d="M111 184c18 12 35 12 52 0" fill="none" stroke="#3b2a1b" stroke-width="8" stroke-linecap="round"/>
  </g>
  <text x="360" y="321" fill="#f6dfad" font-size="42" font-family="Georgia, serif" font-weight="900" text-anchor="middle">CITOYEN</text>
</svg>
